<svg version="1" xmlns="http://www.w3.org/2000/svg" width="2000" height="2000" viewBox="0 0 1500.000000 1500.000000"><path d="M783 134.6c-3.6 1.4-8.4 3.4-10.7 4.4-2.4 1.1-4.5 2-4.9 2-.6 0-18 8.7-23.9 12-23.5 13.1-44.7 29.1-62.3 47-23.6 24-46.5 62.3-57.8 97-4.7 14.3-9.5 38.6-10.9 55-.3 3.6-.8 8.5-1 11-.3 2.5-.6 13-.6 23.5-.1 17.2.3 25.3 1.6 35.5.3 1.9.7 5.5 1 8 2.9 25.6 16.2 60 33.3 86.5 5.4 8.4 17.2 24.4 21.5 29.3 9 10 18.1 19.2 19.2 19.2.6 0 1.9-2.4 2.9-5.3 5.5-15.6 16.5-34.1 23.9-40.1 3.6-2.8 4.5-3.1 10.7-3 12.3.2 24.4 7.7 32.9 20.5 7.5 11.3 12.9 28.7 14.7 47.8.5 4.9.4 5.3-1.2 4.7-3.4-1.3-27.8-5-40.7-6.3-7.2-.6-36.6-.6-41.7.1-1.9.2-6 .7-9 1.1-9 1.2-27.1 6.1-37 10-20.9 8.4-41.1 22.5-62.5 44-14.1 14.1-21.1 22.8-31.4 39.3-16.8 26.9-35.2 69.9-43 100.2-1.8 7.2-2 7.4-3 4.7-.6-1.6-2-6.3-3.2-10.5-1.1-4.3-2.6-10-3.4-12.7-1.4-5.5-7.1-31.2-7.9-36-3.5-20.9-3.8-23.1-5.1-36-1.2-12-1.6-19.1-1.6-31.9 0-13 .2-16.5 1.7-28.2 1-8.4 4.1-24.5 5.5-29.1.6-1.7 1.2-4.3 1.5-5.7.8-4.6 8.1-25.9 12.4-36.6 6.7-16.3 17.7-37.6 26.1-50.5 2.5-3.9 4.8-7.6 5.3-8.2 1.1-1.9-2.3-.5-6.4 2.7-1.9 1.5-4.5 3.3-5.8 3.9-2.7 1.4-2.3 1.1-15.2 11.7C465.2 550 427.3 606 407.4 663c-3.2 9.4-8 25.5-8.9 30-.3 1.3-1.3 6.7-2.4 11.9-2.4 11.6-2.9 15.1-3.7 23.8-.3 3.7-.7 8.4-.9 10.3-.5 4.9-.5 35.6 0 40.5 1.3 12.4 1.7 15.8 3 23.5 2.3 13.2 2.4 13.8 5.5 25.5 8.7 33 24.8 67.6 45.9 98.5 5.6 8.3 20.6 28.6 22.1 30 .3.3 2.5 3 5 6 16 19.8 39.3 42.9 56.6 56 3.2 2.5 6.1 4.8 6.2 5.2.2.5.8.8 1.2.8.5 0 3.7 2 7.2 4.4 13 9 35 19.8 51 25 10.8 3.6 30.5 8.4 37.3 9.2.6 0 3.5.4 6.5.8 9.2 1.2 11.1 1.4 21.5 2.2 12 1 41.6 1 54 .1 15.6-1.1 40.5-5.1 49.2-7.8 1.7-.6 4.4-1.2 5.9-1.5 7.6-1.4 33.7-12.7 49.4-21.6 21.3-11.9 46.9-31.7 66.7-51.4 16.4-16.4 16.3-17.6.7 14.1-13 26.5-25.5 45.8-37.3 57.5-23.5 23.2-62.3 42-103.1 50-4.4.9 11.2.5 22-.5 2.5-.3 7.3-.7 10.8-1 5.6-.5 9.4-.9 23.7-3 2.2-.3 5.1-.8 6.5-1 1.4-.3 4.3-.8 6.5-1.1 2.2-.3 9-1.6 15.2-2.9 6.1-1.4 12.3-2.6 13.6-2.9 5.7-1 26.8-7 38-10.7 32.9-11 66.3-27.3 91.7-44.7 9.2-6.3 16-11.2 17-12.2.3-.3 3.9-3.2 8-6.5 8.8-7 27.1-25 35.7-35 18.5-21.5 34.7-48.2 45.8-75.4 4-9.8 9.9-26.8 11-31.6.2-1.1 1.1-4.5 1.9-7.5.8-3 1.7-6.6 2-8 .3-1.4.8-3.6 1.1-5 2.6-10.7 6.1-37.4 7-53.5 1.4-23.9.2-55-3-81-5.5-44.8-20.9-90.1-43.3-127.5-27.6-46-71.3-86.7-124.7-116.2-7-3.9-37.1-18.8-37.9-18.8-.3 0-3.3-1.3-6.8-2.9-3.5-1.6-14.8-6.2-25.3-10.1-21.3-8-37.2-15.3-51-23.5-12.2-7.2-22.9-19.1-39.8-44.2-15.6-23.3-25.7-45.4-32.2-70.3-1.4-5.6-1.5-6.2-3.3-16.5-.6-3.3-1.4-7.6-1.7-9.5-1.1-6.2-1.4-38.3-.4-45 1.7-12.1 2-13.4 3.5-19.5 4.1-15.6 11.3-32.8 19.6-46.4 3.4-5.6 14-20.5 15.8-22.1 2.6-2.5 17.3-18 16.9-17.9-.2 0-3.3 1.2-6.9 2.5z" /><path d="M756 286.3c0 2.7 3.1 18.1 5.1 25.2 1.1 3.8 2.1 7.8 2.4 8.9 1 4.1 4.5 13.5 7.9 21 5.2 11.3 13.3 23 22.8 33l8.3 8.6 7.5 1.5c4.1.8 8.6 1.6 10 1.9 5.6 1 28.1 6.9 37 9.8 69.3 22.2 130.4 62.4 176.9 116.3 4.7 5.5 8.8 10.2 9.1 10.5.4.3 4.6 5.9 9.5 12.5 22.6 30.3 40 62.3 53.3 98 4.8 12.8 11 33.2 12.7 41.5.2.8 1 4.2 1.8 7.5 1.8 6.8 2.1 8.5 4.7 25 2.5 16.2 2.8 18.5 3.7 29.5 1.5 17.7.7 67.1-1.1 76.6-.2 1.2-.7 4.5-1.1 7.5-.3 3-1.3 9-2 13.4-.8 4.4-1.7 9.6-2 11.6-.6 3.8-7.2 29.6-9.8 38.4-2 6.7-8.6 25.2-10.2 29-.8 1.6-2.6 5.9-4 9.5-7.7 18.5-22.4 45.4-35.3 64.5-41.7 61.3-96.2 107.1-164.7 138.5-21.4 9.8-60.2 22.4-78.3 25.5-1.8.3-6.3 1.2-10 1.9-6.8 1.5-9.5 1.9-19.2 3.1-3 .4-6.2.9-7 1-13.7 2.5-73.3 2.6-89 .1-1.4-.2-5-.7-8-1.1-3-.4-6.8-.9-8.5-1.1-1.6-.2-7.7-1.3-13.5-2.4-59.9-11.5-116.8-37.3-165.5-75-6.6-5.1-12.2-9.6-12.5-9.9-.3-.3-4.3-4-8.9-8.1-48.2-42.8-86.2-99.4-107.7-160.7-7.2-20.5-15-50.4-17-64.9-.3-2.7-.8-5.6-.9-6.6-.4-1.9-1.3-8.4-2-14.3-2.1-16.7-2.8-59.3-1.3-76.5 1-11 3.7-31.3 4.9-36.8.5-2.3 1.2-5.9 1.5-8 .3-2 1-5.5 1.6-7.7.5-2.2 1.2-5.1 1.5-6.5.8-4.9 7.2-26.7 10.8-37 10.4-29.8 24.3-58.3 41.3-84.5 6.4-9.9 21.2-30.2 26.3-36 18.5-21.2 27-30 41.2-42.7 12-10.7 14.3-12.7 19.2-16.3 2.2-1.7 4.2-3.2 4.5-3.5.5-.6 6.1-4.5 17.3-12.4 3.5-2.5 11.8-7.7 18.3-11.6 6.6-3.9 12.6-7.4 13.4-7.9 3.1-1.9 27.7-13.8 34.3-16.6 6.4-2.8 6.7-3.1 6.8-6.5.3-10.7 1.9-38.5 2.4-42.5.2-1.7.6-5.3.9-8 1.1-10.6 3.3-19.4 8.8-36.3 1.6-5.1 2.8-9.5 2.5-9.8-.6-.6-26.3 8.2-39.2 13.4-51 20.6-99.9 50.9-142 88.2-8.9 7.9-35.6 35.2-44 45-21.3 24.9-42 54.4-56.5 80.5-3.7 6.6-19 37.3-19 38 0 .2-1.3 3.4-3 7-1.6 3.6-3 6.8-3 7.1 0 .3-.7 2-1.5 3.7-5.1 11-18.4 52.4-20.9 65.3-.2 1-1.2 5-2.1 8.9-.9 3.8-1.8 8.6-2.1 10.5-.3 1.9-.7 4.1-.9 4.8-.8 2.1-4.4 25.4-5 32.2-.4 3.6-.9 7.6-1.1 9-2.9 18.2-2.5 76.8.6 103 .6 4.7 1.3 10.7 1.6 13.5.3 2.7.7 5.2.9 5.5.2.3.6 2.9.9 5.6.4 2.8 1.8 10.4 3.1 17 1.4 6.5 2.8 13 3 14.4.8 4.3 7.4 28.1 10.6 38 14.1 43.7 32.5 81.7 58.4 120.5 14 20.9 24.5 34.5 42.5 54.9 5.3 6.1 30.6 31.5 37 37.1 66 58.7 141.3 96.3 230 114.5 4.2.9 11.9 2.2 20 3.5 1.9.3 4.6.7 6 1 1.4.2 5.4.7 9 1.1 3.6.3 7.2.7 8 .9 13.8 2.6 80.7 2.6 100.5 0 9.7-1.3 20.5-2.7 23.5-3.1 14.9-1.8 50.9-10.2 71.8-16.8 13.6-4.3 36.2-12.7 44.9-16.7 3.5-1.6 6.6-2.9 6.9-2.9 1.3 0 34.4-17 43.9-22.5 13.3-7.7 37.7-23.4 41.8-27 1.3-1.1 15.5-11.9 19.7-15 1.5-1.1 4.7-3.7 7.1-5.8 2.4-2.1 7.1-6.2 10.4-9 3.3-2.8 13.2-12.4 22-21.2 14.9-14.8 20.4-20.8 30-32.5 2-2.5 4.5-5.5 5.5-6.6 8.8-10.4 28.1-38.2 37.7-54.4 13.1-22 26.7-49.6 34.2-69.5 1.3-3.3 2.7-6.9 3.2-8 3.8-8.6 14.2-42.4 17.5-56.8 1.1-4.7 5.4-25 5.9-28.2 1.4-7.4 3.5-22 4-27.5.4-3.6.8-7.6 1.1-9 1.2-7.3 1.9-26.5 1.9-50.5-.1-29.9-.9-42.5-4.1-65-.8-5.5-1.7-11.6-1.9-13.5-.2-1.9-.7-4.6-1.1-6-.3-1.4-.8-3.6-1-5-3.2-18.5-14.4-59.9-19.3-71.5-.5-1.1-3.2-8-6-15.2-17.3-44.6-42.1-87.1-73.1-125.7-13.5-16.8-18-21.7-37-40.6-31.1-31.1-67.4-58.4-106-79.7-6.9-3.8-35.7-18.3-36.4-18.3-.3 0-3.4-1.3-6.9-2.9-18.6-8.5-65.7-24-81.6-26.7-1.4-.3-4.2-.9-6.1-1.4-8.6-2.2-41.5-7.4-54-8.5-14.1-1.3-17.3-1.5-28.7-2.1-10.5-.5-12.3-.4-12.3.9z" /></svg>